<?xml version="1.0" encoding="UTF-8" standalone="no"?>
<!-- Created with Inkscape (http://www.inkscape.org/) -->

<svg
   xmlns:dc="http://purl.org/dc/elements/1.1/"
   xmlns:cc="http://creativecommons.org/ns#"
   xmlns:rdf="http://www.w3.org/1999/02/22-rdf-syntax-ns#"
   xmlns:svg="http://www.w3.org/2000/svg"
   xmlns="http://www.w3.org/2000/svg"
   xmlns:sodipodi="http://sodipodi.sourceforge.net/DTD/sodipodi-0.dtd"
   xmlns:inkscape="http://www.inkscape.org/namespaces/inkscape"
   width="92.624168mm"
   height="35.35825mm"
   viewBox="0 0 92.624168 35.35825"
   version="1.1"
   id="svg8"
   inkscape:version="0.92.2 (5c3e80d, 2017-08-06)"
   sodipodi:docname="URJC logo.svg">
  <title
     id="title970">URJC logo</title>
  <defs
     id="defs2" />
  <sodipodi:namedview
     id="base"
     pagecolor="#ffffff"
     bordercolor="#666666"
     borderopacity="1.0"
     inkscape:pageopacity="0.0"
     inkscape:pageshadow="2"
     inkscape:zoom="0.99999999"
     inkscape:cx="123.44199"
     inkscape:cy="63.757578"
     inkscape:document-units="px"
     inkscape:current-layer="layer1"
     showgrid="false"
     inkscape:snap-object-midpoints="true"
     fit-margin-top="0.01"
     fit-margin-right="0.01"
     fit-margin-bottom="0.01"
     fit-margin-left="0.01"
     inkscape:window-width="1366"
     inkscape:window-height="705"
     inkscape:window-x="-8"
     inkscape:window-y="-8"
     inkscape:window-maximized="1"
     showguides="true"
     inkscape:guide-bbox="true" />
  <metadata
     id="metadata5">
    <rdf:RDF>
      <cc:Work
         rdf:about="">
        <dc:format>image/svg+xml</dc:format>
        <dc:type
           rdf:resource="http://purl.org/dc/dcmitype/StillImage" />
        <dc:title>URJC logo</dc:title>
        <dc:date>06/04/2018</dc:date>
        <dc:creator>
          <cc:Agent>
            <dc:title>URJC</dc:title>
          </cc:Agent>
        </dc:creator>
        <dc:publisher>
          <cc:Agent>
            <dc:title>CMetalCore</dc:title>
          </cc:Agent>
        </dc:publisher>
        <dc:source>https://commons.wikimedia.org/wiki/File:Logo_URJC.png</dc:source>
      </cc:Work>
    </rdf:RDF>
  </metadata>
  <g
     inkscape:label="Capa 1"
     inkscape:groupmode="layer"
     id="layer1"
     transform="translate(26.75687,-45.059061)">
    <g
       id="g1517"
       transform="matrix(0.98650708,0,0,0.98650708,-0.3608933,1.0849292)">
      <path
         id="path1434"
         transform="matrix(0.26458334,0,0,0.26458334,-33.78365,44.082395)"
         d="m 133.85156,59.064453 v 15.308594 c 0,2.180586 0.14193,3.781453 0.42578,4.800781 0.29677,1.019329 0.66482,1.884091 1.10352,2.59375 0.4516,0.696759 0.99939,1.328762 1.64453,1.896484 2.12898,1.832212 4.95408,2.748047 8.47656,2.748047 3.45797,0 6.25851,-0.922465 8.40039,-2.767578 0.64515,-0.554822 1.1863,-1.180194 1.625,-1.876953 0.4516,-0.709659 0.82628,-1.59431 1.12305,-2.652344 0.30967,-1.058036 0.46484,-2.625755 0.46484,-4.703125 V 59.064453 h -3.89062 v 15.347656 c 0,2.128978 -0.16648,3.632366 -0.50195,4.509766 -0.33548,0.877392 -0.88522,1.640014 -1.64649,2.285156 -1.44512,1.199973 -3.31461,1.798828 -5.61133,1.798828 -1.61286,0 -3.01411,-0.29709 -4.20117,-0.890625 -1.18707,-0.606437 -2.06976,-1.40492 -2.65039,-2.398437 -0.58062,-0.993525 -0.87109,-2.762817 -0.87109,-5.304688 V 59.064453 Z m 145.4043,0 v 9.599609 c -1.39352,-0.503213 -2.68403,-0.753906 -3.87109,-0.753906 -2.55478,0 -4.65703,0.844874 -6.3086,2.535156 -1.63867,1.690273 -2.45898,3.845554 -2.45898,6.464844 0,2.799925 0.7825,5.030842 2.34375,6.695313 1.57415,1.664471 3.6764,2.498047 6.30859,2.498047 h 7.5293 V 59.064453 Z m 37.58008,0 v 9.599609 c -1.39351,-0.503213 -2.68207,-0.753906 -3.86914,-0.753906 -2.55477,0 -4.65898,0.844874 -6.31055,2.535156 -1.63867,1.690273 -2.45703,3.845554 -2.45703,6.464844 0,2.799925 0.78054,5.030842 2.3418,6.695313 1.57415,1.664471 3.67641,2.498047 6.30859,2.498047 h 7.5293 V 59.064453 Z m -132.7461,1.742188 c -0.54192,0 -1.0207,0.212877 -1.43359,0.638671 -0.41289,0.412894 -0.61914,0.889722 -0.61914,1.431641 0,0.554822 0.20625,1.044909 0.61914,1.470703 0.41289,0.412893 0.89167,0.621094 1.43359,0.621094 0.58063,0 1.07735,-0.208201 1.49024,-0.621094 0.41289,-0.41289 0.61914,-0.902978 0.61914,-1.470703 0,-0.580631 -0.20625,-1.070713 -0.61914,-1.470703 -0.41289,-0.399985 -0.90961,-0.599609 -1.49024,-0.599609 z m 76.22071,0 c -0.54193,0 -1.01875,0.212877 -1.43164,0.638671 -0.4129,0.412894 -0.61914,0.889722 -0.61914,1.431641 0,0.554822 0.20624,1.044909 0.61914,1.470703 0.41289,0.412893 0.88971,0.621094 1.43164,0.621094 0.58062,0 1.07929,-0.208201 1.49218,-0.621094 0.4129,-0.41289 0.61915,-0.902978 0.61915,-1.470703 0,-0.580631 -0.20625,-1.070713 -0.61915,-1.470703 -0.41289,-0.399985 -0.91156,-0.599609 -1.49218,-0.599609 z M 171.125,67.949219 c -1.99994,0 -3.78717,0.869439 -5.36133,2.611328 v -2.263672 h -3.59961 v 17.806641 h 3.59961 V 73.386719 c 1.16127,-1.664471 2.57381,-2.496094 4.23828,-2.496094 1.30319,0 2.23229,0.392616 2.78711,1.179687 0.55482,0.774176 0.83203,2.071322 0.83203,3.890626 v 10.142578 h 3.52344 V 75.921875 c 0,-2.167685 -0.25264,-3.748671 -0.75586,-4.742187 -0.49031,-1.006428 -1.21315,-1.793598 -2.16797,-2.361329 -0.95481,-0.580623 -1.98605,-0.86914 -3.0957,-0.86914 z m 44.21484,0 c -2.45154,0 -4.44502,0.851511 -5.98046,2.554687 -1.53545,1.690283 -2.30274,3.890008 -2.30274,6.59961 0,1.8064 0.36143,3.398683 1.08398,4.779296 0.73547,1.367703 1.70901,2.458602 2.92188,3.271485 1.21287,0.812883 2.80048,1.21875 4.76172,1.21875 1.43221,0 2.67829,-0.153221 3.73633,-0.462891 1.07093,-0.309669 2.14857,-0.826265 3.23242,-1.548828 v -3.445312 c -1.96124,1.445122 -4.10326,2.167968 -6.42578,2.167968 -1.66447,0 -3.02595,-0.503345 -4.08399,-1.509765 -1.04512,-1.006428 -1.61279,-2.36127 -1.70312,-4.064453 h 12.52148 v -0.445313 c 0,-2.77412 -0.70295,-4.987104 -2.10937,-6.638672 -1.40642,-1.651568 -3.29112,-2.476562 -5.65235,-2.476562 z m 20.8418,0 c -1.70318,0 -3.4062,1.372785 -5.10937,4.121093 l -0.19336,0.310547 v -4.083984 h -3.54102 v 17.806641 h 3.54102 v -9.310547 c 0,-1.483835 0.41249,-2.767723 1.23828,-3.851563 0.83868,-1.083845 1.82743,-1.625 2.96289,-1.625 1.04513,0 2.18047,0.580923 3.40625,1.742188 l 1.85742,-3.097656 c -1.44512,-1.341899 -2.83311,-2.011719 -4.16211,-2.011719 z m 11.80469,0 c -1.67738,0 -3.05211,0.432386 -4.12305,1.296875 -1.05803,0.864491 -1.58789,1.979946 -1.58789,3.347656 0,1.058036 0.35012,2.038205 1.04688,2.941406 0.70965,0.890296 2.19979,1.967933 4.4707,3.232422 1.13545,0.64514 1.8696,1.141858 2.20508,1.490234 0.34837,0.335474 0.52343,0.76123 0.52343,1.277344 0,0.503214 -0.26395,0.935593 -0.79296,1.296875 -0.52902,0.361278 -1.16298,0.541016 -1.89844,0.541016 -0.70966,0 -1.58573,-0.212878 -2.63086,-0.638672 -1.03223,-0.438695 -2.04554,-1.006367 -3.03906,-1.703125 v 3.794922 c 1.25158,0.606423 2.28944,1.025548 3.11523,1.257812 0.82578,0.219339 1.76814,0.328125 2.82617,0.328125 1.7935,0 3.25908,-0.46357 4.39453,-1.392578 1.14836,-0.941908 1.72266,-2.141583 1.72266,-3.599609 0,-2.038657 -1.48547,-3.896847 -4.45313,-5.574219 l -1.25781,-0.716797 c -0.95481,-0.529018 -1.62463,-0.981283 -2.01172,-1.355468 -0.37418,-0.374179 -0.5625,-0.766795 -0.5625,-1.179688 0,-0.47741 0.20625,-0.858713 0.61914,-1.142578 0.4258,-0.296766 0.98216,-0.445313 1.66602,-0.445313 1.32899,0 3.03863,0.631998 5.12891,1.896485 v -3.482422 c -1.83222,-0.980616 -3.61944,-1.470703 -5.36133,-1.470703 z m 44.60156,0 c -2.56767,0 -4.53464,0.805113 -5.90234,2.417969 v 3.851562 c 1.8193,-1.987044 3.69075,-2.980469 5.61328,-2.980469 2.14188,0 3.21289,1.07101 3.21289,3.212891 v 0.949219 l -4.50977,1.546875 c -1.48383,0.516114 -2.63243,1.221032 -3.44531,2.111328 -0.79997,0.877399 -1.19922,1.87745 -1.19922,3 0,1.238677 0.4125,2.269919 1.23828,3.095703 0.82579,0.812883 1.85703,1.21875 3.09571,1.21875 1.69027,0 3.28452,-0.580923 4.78125,-1.742188 0.27096,1.187069 1.16028,1.78125 2.66992,1.78125 0.52902,0 1.03236,-0.09552 1.50976,-0.289062 0.49032,-0.180641 1.13557,-0.53076 1.93555,-1.046875 v -2.148438 c -0.9032,0.63224 -1.56639,0.949219 -1.99219,0.949219 -0.41289,0 -0.61914,-0.303728 -0.61914,-0.910156 v -7.566406 c 0,-1.496736 -0.0464,-2.510045 -0.13672,-3.039063 -0.0774,-0.541919 -0.27041,-1.078404 -0.58007,-1.607422 -0.30967,-0.541918 -0.65784,-0.972344 -1.04493,-1.294922 -1.16126,-1.00642 -2.70442,-1.509765 -4.62695,-1.509765 z m -110.24023,0.347656 v 17.806641 h 3.52148 V 68.296875 Z m 6.42187,0 8.05274,18.115234 h 1.17968 l 7.85743,-18.115234 h -3.8125 l -4.625,10.955078 -4.80079,-10.955078 z m 69.80078,0 v 17.806641 h 3.52149 V 68.296875 Z m 17.35742,2.669922 c 1.12256,0 2.23138,0.279157 3.32813,0.833984 v 11.283203 h -2.72852 c -1.57414,0 -2.66504,-0.104109 -3.27148,-0.310546 -0.60644,-0.206446 -1.18074,-0.605692 -1.72266,-1.199219 -0.9032,-0.993525 -1.35351,-2.40607 -1.35351,-4.238281 0,-1.948337 0.5166,-3.498131 1.54883,-4.646485 1.04513,-1.148356 2.44442,-1.722656 4.19921,-1.722656 z m 37.58008,0 c 1.12255,0 2.23138,0.279157 3.32813,0.833984 v 11.283203 h -2.72852 c -1.57415,0 -2.66309,-0.104109 -3.26953,-0.310546 -0.60643,-0.206446 -1.18073,-0.605692 -1.72266,-1.199219 -0.9032,-0.993525 -1.35546,-2.40607 -1.35546,-4.238281 0,-1.948337 0.51659,-3.498131 1.54882,-4.646485 1.04514,-1.148356 2.44443,-1.722656 4.19922,-1.722656 z m -98.16797,0.03906 c 1.26449,0 2.27117,0.381304 3.01954,1.142579 0.74835,0.761267 1.16748,1.845538 1.25781,3.251953 h -8.96094 c 0.24516,-1.406415 0.76838,-2.490686 1.56836,-3.251953 0.81288,-0.761275 1.85075,-1.142579 3.11523,-1.142579 z m 80.17188,6.291016 v 5.283203 c -0.95482,0.916105 -1.99464,1.375 -3.11719,1.375 -0.74837,0 -1.36049,-0.232759 -1.83789,-0.697266 -0.46451,-0.464501 -0.69726,-1.065317 -0.69726,-1.800781 0,-0.72256 0.24601,-1.321418 0.73632,-1.798828 0.50321,-0.490305 1.35473,-0.973762 2.55469,-1.451172 z m 1.66406,23.492187 c -4.11601,0 -7.57974,1.34159 -10.39258,4.02539 -2.79992,2.6838 -4.20117,5.99431 -4.20117,9.92969 0,2.47735 0.61407,4.77923 1.83985,6.9082 1.22577,2.12897 2.88902,3.8008 4.99218,5.01368 2.10318,1.21287 4.66432,1.81836 7.6836,1.81836 3.71603,0 6.9934,-0.77392 9.83203,-2.32227 v -4.25781 c -3.1225,2.01285 -6.32228,3.01953 -9.59961,3.01953 -3.1354,0 -5.70981,-0.95365 -7.72266,-2.86328 -2.01285,-1.90963 -3.01758,-4.34874 -3.01758,-7.31641 0,-2.94185 1.01799,-5.3876 3.05664,-7.33594 2.05156,-1.96123 4.62597,-2.9414 7.72266,-2.9414 3.01927,0 6.11028,0.90258 9.27148,2.70898 v -4.16016 c -3.47087,-1.48382 -6.6262,-2.22656 -9.46484,-2.22656 z m -162.64648,0.34766 v 27.03906 h 3.87109 V 116.4082 h 1.00586 c 1.26448,0 2.16044,0.14855 2.68945,0.44532 0.54192,0.28386 1.14273,0.75406 1.80078,1.4121 0.67095,0.65805 1.40706,1.5427 2.20704,2.65235 l 1.29492,2.10937 1.20117,1.97461 0.75391,1.06446 c 0.11612,0.15478 0.19371,0.26357 0.23242,0.32812 l 1.18164,1.78125 h 4.60547 l -1.43164,-1.93555 c -0.56773,-0.77416 -1.32372,-1.92939 -2.26563,-3.46484 -1.49674,-2.43865 -2.65664,-4.14829 -3.48242,-5.12891 -0.82579,-0.98062 -1.67067,-1.75454 -2.53516,-2.32226 1.47093,-0.56773 2.59964,-1.42586 3.38672,-2.57422 0.78707,-1.14835 1.17969,-2.50983 1.17969,-4.08398 0,-2.30962 -0.80511,-4.14129 -2.41797,-5.4961 -1.59996,-1.3548 -3.7685,-2.0332 -6.50391,-2.0332 z m 71.36718,0 v 26.24609 c 0,2.21929 -0.17506,3.66966 -0.52343,4.35352 -0.33548,0.68385 -0.79905,1.16263 -1.39258,1.43359 -0.58063,0.27097 -1.42551,0.40625 -2.53516,0.40625 h -0.98828 l 0.7168,3.59961 c 0.59355,0.0774 1.01267,0.11524 1.25781,0.11524 1.59996,0 2.96806,-0.36143 4.10352,-1.08399 1.13545,-0.70966 1.95382,-1.66331 2.45703,-2.86328 0.51611,-1.18706 0.77539,-3.02537 0.77539,-5.51563 v -26.6914 z m 135.51758,0 v 27.03906 h 3.52149 v -27.03906 z m -203.01367,3.29101 h 1.16016 c 1.89672,0 3.25157,0.14193 4.06445,0.42579 0.82578,0.28386 1.46442,0.77394 1.91602,1.4707 0.4516,0.68385 0.67773,1.45114 0.67773,2.30273 0,0.86449 -0.20625,1.64037 -0.61914,2.32422 -0.39999,0.67095 -0.96766,1.17234 -1.70313,1.50781 -0.72256,0.33549 -2.06415,0.50391 -4.02539,0.50391 h -1.4707 z m 27.07227,5.59375 c -2.45155,0 -4.44503,0.85152 -5.98047,2.55469 -1.53545,1.69028 -2.30274,3.89001 -2.30274,6.59961 0,1.8064 0.36143,3.40064 1.08399,4.78125 0.73546,1.3677 1.709,2.45665 2.92187,3.26953 1.21288,0.81289 2.80048,1.22071 4.76172,1.22071 1.43222,0 2.67829,-0.15518 3.73633,-0.46485 1.07094,-0.30967 2.14662,-0.82626 3.23047,-1.54883 v -3.44531 c -1.96124,1.44512 -4.10131,2.16797 -6.42383,2.16797 -1.66447,0 -3.02595,-0.50335 -4.08398,-1.50977 -1.04514,-1.00642 -1.61281,-2.36127 -1.70313,-4.06445 h 12.52149 v -0.44531 c 0,-2.77412 -0.70296,-4.98711 -2.10938,-6.63867 -1.40642,-1.65157 -3.29111,-2.47657 -5.65234,-2.47657 z m 74.07422,0 c -2.56768,0 -4.53464,0.80707 -5.90235,2.41993 v 3.85156 c 1.81931,-1.98705 3.69075,-2.98242 5.61328,-2.98242 2.14188,0 3.21094,1.07101 3.21094,3.21289 v 0.94922 l -4.50781,1.54882 c -1.48383,0.51612 -2.63243,1.21908 -3.44532,2.10938 -0.79997,0.8774 -1.20117,1.87745 -1.20117,3 0,1.23868 0.41445,2.26992 1.24024,3.0957 0.82578,0.81289 1.85703,1.22071 3.0957,1.22071 1.69028,0 3.28452,-0.58093 4.78125,-1.74219 0.27096,1.18707 1.16029,1.7793 2.66992,1.7793 0.52903,0 1.03237,-0.0955 1.50977,-0.28907 0.49031,-0.18064 1.13557,-0.5288 1.93555,-1.04492 v -2.14844 c -0.90321,0.63224 -1.56835,0.94727 -1.99415,0.94727 -0.41289,0 -0.61914,-0.30178 -0.61914,-0.9082 v -7.56836 c 0,-1.49674 -0.0444,-2.51005 -0.13476,-3.03907 -0.0774,-0.54191 -0.27041,-1.07645 -0.58008,-1.60547 -0.30967,-0.54191 -0.65783,-0.97429 -1.04492,-1.29687 -1.16126,-1.00642 -2.70443,-1.50977 -4.62695,-1.50977 z m 21.24804,0 c -1.99995,0 -3.78718,0.8714 -5.36133,2.61329 v -2.26563 h -3.59961 v 17.80664 h 3.59961 v -12.7168 c 1.16126,-1.66447 2.57381,-2.49609 4.23829,-2.49609 1.30319,0 2.23228,0.39457 2.7871,1.18164 0.55483,0.77418 0.83399,2.06937 0.83399,3.88867 v 10.14258 h 3.52148 v -10.17969 c 0,-2.16768 -0.25069,-3.74867 -0.7539,-4.74218 -0.49031,-1.00643 -1.21316,-1.7936 -2.16797,-2.36133 -0.95482,-0.58063 -1.98802,-0.8711 -3.09766,-0.8711 z m 54.39063,0 c -2.56767,0 -4.53464,0.80707 -5.90235,2.41993 v 3.85156 c 1.81931,-1.98705 3.69075,-2.98242 5.61328,-2.98242 2.14188,0 3.2129,1.07101 3.2129,3.21289 v 0.94922 l -4.50977,1.54882 c -1.48383,0.51612 -2.63243,1.21908 -3.44531,2.10938 -0.79999,0.8774 -1.20118,1.87745 -1.20118,3 0,1.23868 0.41445,2.26992 1.24024,3.0957 0.82578,0.81289 1.85703,1.22071 3.0957,1.22071 1.69028,0 3.28452,-0.58093 4.78125,-1.74219 0.27097,1.18707 1.16029,1.7793 2.66992,1.7793 0.52902,0 1.03236,-0.0955 1.50977,-0.28907 0.49031,-0.18064 1.13557,-0.5288 1.93555,-1.04492 v -2.14844 c -0.90321,0.63224 -1.5664,0.94727 -1.99219,0.94727 -0.41289,0 -0.62109,-0.30178 -0.62109,-0.9082 v -7.56836 c 0,-1.49674 -0.0444,-2.51005 -0.13477,-3.03907 -0.0774,-0.54191 -0.27041,-1.07645 -0.58008,-1.60547 -0.30967,-0.54191 -0.65783,-0.97429 -1.04492,-1.29687 -1.16126,-1.00642 -2.70442,-1.50977 -4.62695,-1.50977 z m 20.37304,0 c -1.70318,0 -3.4062,1.37474 -5.10937,4.12305 l -0.19531,0.30859 v -4.08398 h -3.54102 v 17.80664 h 3.54102 v -9.31055 c 0,-1.48383 0.41444,-2.76577 1.24023,-3.84961 0.83869,-1.08384 1.82548,-1.62695 2.96094,-1.62695 1.04513,0 2.18047,0.58092 3.40625,1.74219 l 1.85742,-3.09766 c -1.44512,-1.3419 -2.83116,-2.01172 -4.16016,-2.01172 z m 39.5918,0 c -1.67737,0 -3.05015,0.43239 -4.12109,1.29688 -1.05804,0.86449 -1.58789,1.97995 -1.58789,3.34766 0,1.05803 0.34816,2.0382 1.04492,2.9414 0.70966,0.8903 2.19979,1.96793 4.4707,3.23242 1.13545,0.64514 1.87156,1.14186 2.20703,1.49024 0.34838,0.33547 0.52149,0.76123 0.52149,1.27734 0,0.50322 -0.26395,0.93559 -0.79297,1.29688 -0.52902,0.36127 -1.16102,0.54297 -1.89649,0.54297 -0.70966,0 -1.58768,-0.21288 -2.63281,-0.63868 -1.03223,-0.43869 -2.04359,-1.00636 -3.03711,-1.70312 v 3.79297 c 1.25158,0.60642 2.28945,1.02555 3.11524,1.25781 0.82578,0.21934 1.76813,0.32813 2.82617,0.32813 1.7935,0 3.25712,-0.46358 4.39258,-1.39258 1.14835,-0.94191 1.72265,-2.14159 1.72265,-3.59961 0,-2.03866 -1.4835,-3.89685 -4.45117,-5.57422 l -1.25781,-0.7168 c -0.95481,-0.52902 -1.62659,-0.97933 -2.01367,-1.35351 -0.37418,-0.37418 -0.56055,-0.76875 -0.56055,-1.18164 0,-0.47741 0.20625,-0.85872 0.61914,-1.14258 0.42579,-0.29677 0.98021,-0.44336 1.66406,-0.44336 1.329,0 3.03864,0.632 5.12891,1.89648 v -3.48437 c -1.83221,-0.98062 -3.61944,-1.47071 -5.36133,-1.47071 z m -17.48828,0.3086 c -2.73542,0 -5.01273,0.87139 -6.83203,2.61328 -1.80641,1.72898 -2.70899,3.89752 -2.70899,6.50391 0,2.58057 0.89791,4.73586 2.69141,6.46484 1.7935,1.71609 4.02442,2.57227 6.69531,2.57227 2.76122,0 5.0518,-0.84488 6.8711,-2.53516 1.81931,-1.70318 2.72851,-3.83858 2.72851,-6.40625 0,-2.64509 -0.89594,-4.83819 -2.68945,-6.58008 -1.7935,-1.75479 -4.04626,-2.63281 -6.75586,-2.63281 z m -183.54102,0.0391 6.89063,13.99414 -6.0586,12.88867 h 3.92969 l 12.59961,-26.88281 h -3.9668 l -4.58789,10.04492 -4.79882,-10.04492 z m 40.51953,0 v 10.20117 c 0,2.2322 0.2394,3.83111 0.7168,4.79883 0.49031,0.95481 1.20653,1.71548 2.14844,2.2832 0.95481,0.55483 1.99268,0.83204 3.11523,0.83204 0.95482,0 1.91043,-0.22418 2.86524,-0.67579 0.96771,-0.45159 1.82585,-1.0836 2.57422,-1.89648 v 2.26367 h 3.52148 v -17.80664 h -3.52148 v 12.73633 c -1.17416,1.63867 -2.59997,2.45703 -4.27735,2.45703 -1.3419,0 -2.28425,-0.36805 -2.82617,-1.10352 -0.52902,-0.74836 -0.79297,-2.05681 -0.79297,-3.92773 v -10.16211 z m -49.16796,2.71094 c 1.26448,0 2.27116,0.37935 3.01953,1.14062 0.74835,0.76127 1.16748,1.84554 1.25781,3.25196 h -8.96094 c 0.24516,-1.40642 0.76839,-2.49069 1.56836,-3.25196 0.81288,-0.76127 1.85076,-1.14062 3.11524,-1.14062 z m 191.99609,0.42578 c 1.74188,0 3.18758,0.55441 4.33594,1.66406 1.14835,1.10965 1.72265,2.50895 1.72265,4.19922 0,1.70318 -0.55441,3.10248 -1.66406,4.19922 -1.09675,1.08384 -2.5093,1.62695 -4.23828,1.62695 -1.74189,0 -3.16769,-0.53648 -4.27734,-1.60742 -1.10965,-1.08384 -1.66602,-2.4765 -1.66602,-4.17969 0,-1.71608 0.54311,-3.12863 1.62695,-4.23828 1.08384,-1.10965 2.46988,-1.66406 4.16016,-1.66406 z m -115,5.86328 v 5.2832 c -0.95481,0.91611 -1.99268,1.375 -3.11523,1.375 -0.74837,0 -1.36049,-0.23276 -1.8379,-0.69726 -0.46449,-0.4645 -0.69726,-1.06337 -0.69726,-1.79883 0,-0.72256 0.24602,-1.32337 0.73633,-1.80078 0.50321,-0.49031 1.35472,-0.97376 2.55469,-1.45117 z m 75.64063,0 v 5.2832 c -0.95482,0.91611 -1.99464,1.375 -3.11719,1.375 -0.74837,0 -1.36048,-0.23276 -1.83789,-0.69726 -0.4645,-0.4645 -0.69727,-1.06337 -0.69727,-1.79883 0,-0.72256 0.24602,-1.32337 0.73633,-1.80078 0.50321,-0.49031 1.35472,-0.97376 2.55469,-1.45117 z"
         style="font-style:normal;font-variant:normal;font-weight:normal;font-stretch:normal;font-size:medium;line-height:1.25;font-family:'Gill Sans MT';-inkscape-font-specification:'Gill Sans MT';letter-spacing:0.21191972px;word-spacing:0px;fill:#1f7a4d;fill-opacity:1;stroke:none;stroke-width:0.99094129"
         inkscape:connector-curvature="0" />
      <g
         id="flowRoot1422"
         style="font-style:normal;font-weight:normal;font-size:40px;line-height:1.25;font-family:sans-serif;letter-spacing:0px;word-spacing:0px;opacity:1;fill:#1f7a4d;fill-opacity:1;stroke:none"
         transform="matrix(1.0615484,0,0,1.0150186,361.93989,-54.987271)"
         aria-label="u">
        <path
           id="path1508"
           style="font-style:normal;font-variant:normal;font-weight:normal;font-stretch:normal;font-family:'Gill Sans MT';-inkscape-font-specification:'Gill Sans MT';letter-spacing:0.21191972px;fill:#1f7a4d"
           d="m -354.53516,130.98047 v -2.28516 q -1.13281,1.23047 -2.59765,1.91406 -1.44531,0.6836 -2.89063,0.6836 -1.69922,0 -3.14453,-0.83985 -1.42578,-0.85937 -2.16797,-2.30468 -0.72265,-1.46485 -0.72265,-4.84375 v -10.29297 h 3.55468 v 10.25391 q 0,2.83203 0.80079,3.96484 0.82031,1.11328 2.85156,1.11328 2.53906,0 4.3164,-2.48047 v -12.85156 h 3.55469 v 17.96875 z"
           inkscape:connector-curvature="0" />
      </g>
      <path
         id="rect1424"
         transform="matrix(0.26458334,0,0,0.26458334,-33.78365,44.082395)"
         d="m 57.212891,1.9023438 a 5.5000003,5.5000003 0 0 0 -5.5,5.5 5.5000003,5.5000003 0 0 0 5.5,5.5000002 5.5000003,5.5000003 0 0 0 5.5,-5.5000002 5.5000003,5.5000003 0 0 0 -5.5,-5.5 z M 35.470703,17.339844 a 8.8750003,8.8750003 0 0 0 -8.875,8.875 8.8750003,8.8750003 0 0 0 8.875,8.875 8.8750003,8.8750003 0 0 0 8.875,-8.875 8.8750003,8.8750003 0 0 0 -8.875,-8.875 z m 21.742188,0 a 8.8750003,8.8750003 0 0 0 -8.875,8.875 8.8750003,8.8750003 0 0 0 8.875,8.875 8.8750003,8.8750003 0 0 0 8.875,-8.875 8.8750003,8.8750003 0 0 0 -8.875,-8.875 z m 21.74414,0 a 8.8750003,8.8750003 0 0 0 -8.875,8.875 8.8750003,8.8750003 0 0 0 8.875,8.875 8.8750003,8.8750003 0 0 0 8.875,-8.875 8.8750003,8.8750003 0 0 0 -8.875,-8.875 z M 35.470703,40.013672 v 7.777344 h 43.486328 v -7.777344 z"
         style="opacity:1;fill:#1f7a4d;fill-opacity:1;stroke:none;stroke-width:3.06519675;stroke-linecap:butt;stroke-linejoin:miter;stroke-miterlimit:4;stroke-dasharray:none;stroke-dashoffset:0;stroke-opacity:1;paint-order:markers stroke fill"
         inkscape:connector-curvature="0" />
    </g>
  </g>
</svg>
